<?xml version="1.0" encoding="UTF-8" standalone="no"?>
<!-- Created with Inkscape (http://www.inkscape.org/) -->

<svg
   xmlns:dc="http://purl.org/dc/elements/1.1/"
   xmlns:cc="http://creativecommons.org/ns#"
   xmlns:rdf="http://www.w3.org/1999/02/22-rdf-syntax-ns#"
   xmlns:svg="http://www.w3.org/2000/svg"
   xmlns="http://www.w3.org/2000/svg"
   xmlns:sodipodi="http://sodipodi.sourceforge.net/DTD/sodipodi-0.dtd"
   xmlns:inkscape="http://www.inkscape.org/namespaces/inkscape"
   width="2076.6108"
   height="800"
   id="svg2"
   version="1.1"
   inkscape:version="0.48.4 r9939"
   sodipodi:docname="Военный катер.svg">
  <defs
     id="defs4" />
  <sodipodi:namedview
     id="base"
     pagecolor="#ffffff"
     bordercolor="#666666"
     borderopacity="1.0"
     inkscape:pageopacity="0.0"
     inkscape:pageshadow="2"
     inkscape:zoom="0.35"
     inkscape:cx="58.253716"
     inkscape:cy="-381.48329"
     inkscape:document-units="px"
     inkscape:current-layer="layer1"
     showgrid="false"
     inkscape:snap-center="true"
     inkscape:snap-object-midpoints="true"
     inkscape:snap-global="false"
     fit-margin-top="0"
     fit-margin-left="0"
     fit-margin-right="0"
     fit-margin-bottom="0"
     inkscape:window-width="1920"
     inkscape:window-height="1018"
     inkscape:window-x="-8"
     inkscape:window-y="-8"
     inkscape:window-maximized="1" />
  <metadata
     id="metadata7">
    <rdf:RDF>
      <cc:Work
         rdf:about="">
        <dc:format>image/svg+xml</dc:format>
        <dc:type
           rdf:resource="http://purl.org/dc/dcmitype/StillImage" />
        <dc:title />
      </cc:Work>
    </rdf:RDF>
  </metadata>
  <g
     inkscape:label="Layer 1"
     inkscape:groupmode="layer"
     id="layer1"
     transform="translate(-24.044593,1195.6875)">
    <path
       style="fill:#000000;stroke:none"
       d="m 1105.146,-1195.6875 6.1379,92.8973 -20.3718,0.4894 c -5.7891,8.7998 -9.4603,18.745 1.7321,36.6016 l 13.0666,-4.2928 -2.5982,62.923 -32.3464,-0.7531 c -1.2887,-10.263 -2.5941,-20.5017 -3.9539,-30.7649 l -24.514,-0.4895 0,-26.6227 -9.9412,0 -0.1129,-25.3801 29.4093,-7.3429 c 12.3098,-8.438 18.9232,-20.128 23.2337,-33.1372 -1.7481,-15.3182 -8.5914,-25.0446 -18.0749,-31.8569 l -34.8317,10.5059 0,-1.0166 -9.4893,-12.0499 -12.4641,16.7569 c 0,0 0.1282,2.2679 0.1506,2.6735 -14.65666,2.9929 -35.53914,5.9693 -56.97337,8.9621 -21.79549,3.0435 -34.29669,32.964 -3.42669,40.8944 21.0372,5.4043 42.07412,7.1939 63.11136,7.9078 0.3433,9.4413 0.5763,17.8573 0.5271,23.083 l -6.8533,0 -4.5564,25.7943 -21.23793,-0.4142 c -0.92259,9.8599 -1.81283,19.6609 -2.71124,29.4845 l -31.29207,-2.3723 0,15.47661 c 12.77229,0.52689 21.6755,2.59397 29.63522,5.0459 -1.72821,19.04268 -3.48746,38.0914 -5.23418,57.16168 l -11.71099,0 c -7.57762,-36.427 -34.45904,-34.22783 -57.46293,-39.80231 -3.99445,3.01248 -7.6612,6.02495 -6.02494,9.03742 68.99693,17.63248 34.15331,56.14183 1.73217,51.21204 -0.34295,2.90399 -1.34083,5.52019 9.45163,12.87833 26.91324,-0.60307 41.33144,-8.34218 49.2916,-19.76936 l 13.48081,0.15063 c -3.09634,33.48246 -6.31925,67.15552 -9.97881,101.48269 l -12.35114,-0.30125 0.0376,-0.64015 c -9.67696,-38.66089 -29.90536,-38.25616 -48.65145,-42.17462 -12.11477,-2.53234 -17.63663,3.95877 -15.06237,9.45163 33.08062,-0.80842 50.81654,33.63047 10.35538,40.48011 -9.49541,1.60747 -14.51714,12.75479 -0.45187,11.18381 24.46262,-2.73229 41.79885,28.14248 -0.41422,29.25865 -7.28583,0.19264 -8.20316,3.00816 -9.90349,6.43916 9.04398,7.47662 46.74608,21.71868 61.98163,-22.36762 l 0.0376,-0.37656 10.95787,0.37656 c -4.64405,40.97347 -9.96494,83.00552 -16.45563,126.74982 l -62.6971,0 -20.0706,56.63449 -48.08661,0 0,-15.85313 c 2.8623,-3.34489 5.31415,-6.4451 7.41822,-9.30102 5.3848,0.1475 11.67327,0.78702 10.99553,-2.37232 l -4.44341,-7.75712 c 9.4944,-17.67692 -0.75829,-21.26646 -13.97034,-15.85314 l 0,-14.61049 c -8.34639,-8.76957 -28.94988,-8.49304 -53.62202,-5.23417 l -5.4601,-3.95388 1.73217,-9.9035 12.4641,0 3.35137,-19.65639 11.29678,0.71546 9.90351,6.89104 -0.26359,-0.82843 c 6.18743,6.88418 12.93616,10.43577 18.48905,8.81148 10.13153,-2.96359 12.3844,-21.94978 5.0459,-42.40056 -7.33851,-20.45078 -21.49945,-34.63222 -31.63097,-31.66863 -7.22735,2.11408 -10.40928,12.39588 -8.99976,25.53071 l -3.69029,0.71546 -3.502,-10.506 -15.47658,-3.01246 -2.59825,8.6232 -9.15039,9.15038 -17.35939,-7.64414 c -7.75906,-15.58312 -19.00402,-25.37578 -27.45116,-22.81949 -10.1301,3.06558 -12.38336,22.67688 -5.04589,43.83149 7.33747,21.15459 21.50086,35.82621 31.63097,32.76064 3.13055,-0.94738 5.50245,-3.48667 7.07931,-7.15462 l 8.54789,-5.27183 -2.44763,22.9701 -10.1671,10.20476 c -5.38932,0.95651 -10.78833,1.96003 -16.15439,2.89951 l 0,36.52624 -27.56412,-3.27607 -7.41822,-15.36361 c 4.00063,-2.73799 6.6651,-7.38772 6.6651,-12.69005 0,-8.46471 -6.68388,-15.2883 -14.98706,-15.2883 l -14.38456,0 c -8.30318,0 -14.98706,6.82359 -14.98706,15.2883 0,8.46472 6.68388,15.28831 14.98706,15.28831 l 8.54789,0 2.89951,12.23817 0,28.73146 -23.72323,0 -14.61049,29.82349 -34.26688,0 -3.31373,-5.3848 4.74465,-10.31772 0.18828,-8.0207 6.25088,2.82418 15.51424,-4.29277 1.69451,-7.75712 -13.33019,-15.06236 -82.20286,-33.55143 -9.90351,0.41422 9.03742,24.55165 c 11.56652,10.11257 23.98066,19.13532 42.6265,20.14592 l 0.41421,28.91974 c 0,0 -1.79418,4.13952 -3.76559,7.53119 l -23.15839,0 -19.84466,55.46716 c -21.74632,-2.72225 -43.46631,-5.5085 -65.18239,-8.47258 l 39.65167,-19.69404 0.45187,-32.68534 c 0.20032,-15.22406 -3.77571,-24.37909 -19.3928,-24.55166 l -77.87243,-0.82842 c -1.07598,1.65988 -2.11336,3.46929 -3.12544,5.38479 l -45.526,-16.60625 -2.56061,5.19651 43.26665,21.80278 c -0.51714,1.25665 -1.00166,2.53394 -1.50624,3.8409 l -47.78535,-17.47235 -2.59826,5.15886 46.39209,23.34667 c -3.86991,11.38843 -7.53273,23.66005 -11.37209,35.17063 -100.89357,-15.69568 -201.27455,-35.38008 -300.720142,-62.65944 l -4.857613,-48.80207 c -0.918009,-9.18008 -13.188729,-5.90077 -13.104259,0.60249 l 0.564839,43.30431 c -7.491479,-2.1252 -15.000406,-4.26127 -22.480582,-6.47683 l 125.394207,220.32477 1893.4148,0 c 49.7772,-22.9079 55.7995,-50.14118 57.8019,-68.15721 l -34.5306,0 -1.3179,-13.14191 c -54.8831,-2.7752 -39.1785,-45.27379 -7.3053,-47.33349 8.9406,-0.57774 5.4492,-11.02923 -0.4141,-12.91598 -12.6083,-4.05717 -24.8806,2.42683 -35.3213,16.64392 l -0.4142,-20.52247 -7.7571,-11.18382 -8.5856,11.18382 0.2259,40.93197 -31.8569,36.33796 -46.2037,0 -1.3557,-31.21676 -17.6606,-11.59802 -33.1372,-0.86608 -7.7195,23.64791 -26.2838,3.87856 -17.623,-29.67286 -19.3551,0 -6.4769,-14.64815 6.8912,-5.57307 49.0656,-11.22146 15.4766,-32.68534 -113.4574,22.93245 0,21.91574 10.3555,0 3.6525,6.10026 -6.0625,8.51024 -12.803,-0.6025 -3.6527,-7.30524 4.8577,-18.26312 -8.6233,-16.26736 -66.2367,-7.45588 1.2425,-14.61049 c 1.3399,-16.07696 -4.8434,-19.19287 -16.4555,-19.50576 l -27.5641,-0.75312 0.6778,-21.012 c 5.3857,1.74551 5.3189,3.83397 27.0745,4.55637 l -0.1506,-0.45188 c 12.2281,-0.23609 22.1041,-16.51542 22.1041,-36.56389 0,-20.19556 -10.0154,-36.5639 -22.3676,-36.5639 -10.8397,0 -19.8648,12.59808 -21.9157,29.33397 l -3.5022,0.90373 0,-0.11291 -15.6271,1.39327 c -0.7574,-2.23513 -1.7004,-4.45911 -2.8618,-6.6651 -8.3036,-15.77305 -23.8959,-23.90723 -34.8318,-18.15015 -10.9357,5.75708 -13.0858,23.20082 -4.7822,38.97388 8.3035,15.77304 23.9334,23.90722 34.8693,18.15014 0.5769,-0.30372 1.0916,-0.64985 1.6192,-1.0167 -0.8992,10.50932 -1.7978,20.96244 -2.2217,26.66038 l -52.1535,-1.39326 6.7028,11.86161 9.4893,1.6192 6.025,18.94092 -30.9908,61.11556 -9.3764,0 c -4.4772,-25.43691 -19.598,-23.58321 -31.0661,-24.09979 l -26.0955,-1.16733 -3.9539,-39.68934 39.5009,1.24265 0.4519,-17.20875 -7.1922,-0.18829 c 4.5687,-2.79884 7.6065,-7.84345 7.6065,-13.59378 0,-6.02745 -3.3455,-11.2666 -8.2842,-13.97034 l 50.0446,-153.86208 0.8284,-98.9974 -0.1506,0.0753 1.3556,-8.09603 -143.8456,1.28031 -6.665,-87.43704 52.9065,-20.71075 -21.0873,-27.11222 -52.9065,17.66058 c -6.3341,-0.71725 -17.008,-0.45442 -30.1248,-2.18404 -36.9381,-4.87074 -62.9371,21.41537 1.2803,37.46763 1.9942,0.49846 3.837,0.91173 5.5731,1.28031 -15.8011,0.98729 -7.4325,11.32539 -1.6945,12.04989 27.1579,3.42907 43.7443,35.09754 -0.8661,44.77289 -8.7382,1.89517 -11.6472,12.41948 1.7322,12.87832 16.282,0.55837 25.8279,-2.17039 31.7438,-6.81573 l -0.2634,18.30078 -113.3444,1.01671 -0.6025,9.11273 88.2655,23.76089 -38.2961,253.65025 -5.3848,1.39327 -2.1464,9.45163 5.8743,0.18828 -5.6484,37.27936 -9.7152,-0.45188 c -3.6049,-62.04515 2.5595,-85.11561 5.1965,-122.19344 l -143.7702,-43.90686 -33.1748,50.19533 -26.8111,0 c -11.1886,-52.6206 -19.5559,-105.23555 -26.6981,-157.8536 l 14.6105,-0.4142 c 12.5701,-0.35915 10.0802,-18.65758 1.205,-18.26312 l -18.1878,0.82842 c -0.882,-6.73715 -1.7466,-13.48407 -2.5982,-20.22122 l 42.7018,2.37232 0,-34.6811 -46.844,-0.94139 c -1.4188,-11.70669 -2.7907,-23.42623 -4.1798,-35.13298 l 63.1867,0.75312 2.4475,-12.16286 -12.1628,0 -7.3052,-3.65262 -4.5564,0 c 7.128,-5.83966 12.1102,-19.58361 2.8242,-24.40104 l -17.1711,-8.92445 c -14.9757,11.11876 -14.425,17.73657 -17.0205,24.21276 l 18.4138,9.11273 -30.426,0 c -1.9862,-16.76108 -3.9793,-33.50927 -6.025,-50.27065 23.0128,-2.78535 42.7424,-6.65109 75.0859,-6.3262 l 5.1589,-13.78202 -31.8569,-0.7531 -4.707,-63.3749 0.6025,-3.9539 4.9706,-1.6192 3.8785,-27.5641 -5.9873,0.1506 -2.7112,-57.6889 9.5646,-5.7237 2.5606,-11.598 -13.0666,-3.276 -0.6778,-14.3847 z m -95.4577,209.25399 39.4257,0.3389 -20.5225,14.98705 z m -20.37189,9.37632 23.94919,17.1711 -26.1709,19.12921 z m 67.55469,6.77807 1.8075,23.5726 -17.397,-14.08331 z m 345.1165,10.61897 -0.226,15.81547 c -3.881,-5.10596 -8.8657,-8.98347 -15.3259,-11.14615 7.783,-0.31514 10.547,-3.0997 15.5519,-4.66932 z m -376.5592,8.51023 21.8028,15.62721 -47.48411,0 z m -37.31699,29.55989 71.99809,0.8661 -31.405,34.30453 -7.6818,-0.15063 z m -3.12544,14.38456 19.24213,20.29654 -20.44711,-0.41422 z m 76.85573,1.24264 1.5439,20.22124 -20.2212,-0.41422 z m 492.5771,42.51354 -0.8662,89.09389 -48.1995,156.19675 c -8.7941,0 -15.9285,7.13437 -15.9285,15.92845 0,5.42991 2.7415,10.23016 6.891,13.10425 l -17.1334,-0.48952 -12.5394,-125.77076 c 17.2816,-5.97893 19.6147,-10.62334 24.9282,-15.51424 -10.419,-1.35902 -22.465,-3.3833 -27.9407,-4.70698 -25.9096,-6.26342 -21.4975,-44.85436 1.2802,-46.05319 l 16.3428,-0.86608 1.2802,-10.7696 -18.0748,-1.2803 c -21.143,-1.51022 -20.3878,-47.66074 14.4598,-46.1285 z m -572.4453,5.42245 19.7317,1.09203 -21.23794,23.19604 z m 32.9489,1.80749 19.3552,1.05436 34.2669,36.22499 0.075,1.12968 -20.3719,-0.48952 c 0.048,-0.52884 0.1129,-1.04078 0.1129,-1.58156 0,-10.0882 -8.5744,-18.26312 -19.1668,-18.26312 -10.5924,0 -19.2045,8.17492 -19.2045,18.26312 0,0.24437 0.028,0.47344 0.038,0.71547 l -29.40931,-0.67781 34.30451,-36.37561 z m 36.4886,2.03342 14.4599,0.79077 1.2426,15.89079 z m 357.2416,15.17533 -0.3013,7.19228 -6.2508,5.61073 -5.3471,-5.27183 1.0167,-7.41822 10.8825,-0.11291 z m -13.1042,16.38032 1.0544,1.35561 -1.431,1.31796 z m 5.912,7.49353 5.9497,7.56884 -0.4519,11.63568 -8.6986,7.41822 c -2.3333,-2.06331 -4.7055,-4.20724 -6.6275,-5.87434 l 2.0712,-15.13766 z m -390.3412,28.12896 50.7602,1.84515 -28.016,14.79877 z m -33.5891,0.71547 39.0492,25.04119 -41.98636,22.14168 z m 412.7465,1.54389 1.7321,1.6192 -2.2216,1.8828 z m 16.1544,1.84515 -0.074,1.6192 c -0.3289,-0.29437 -0.4426,-0.40424 -0.7908,-0.71547 l 0.8661,-0.90373 z m -334.7611,5.1212 2.8618,37.12873 -30.6142,-22.36761 z m 327.9453,1.8828 6.2886,5.94963 -0.4896,12.61473 -18.7902,-0.90375 0.6777,-4.93292 z m -372.078,21.65215 33.815,21.6898 -77.11935,1.35561 z m 357.5805,6.96634 19.8446,0.71546 -0.753,19.0539 -19.3175,-18.22546 z m -2.6358,18.97858 13.1418,12.0499 -16.7192,14.04566 z m 20.5601,30.12473 -0.9791,24.85291 -27.1876,0.37656 1.2804,-9.41398 z m 34.681,36.94046 -22.2923,16.34266 -0.3388,-15.77783 z m -36.1873,0.90374 -0.979,24.28807 -28.129,-19.35515 0.6024,-4.25512 z m 48.1243,3.53965 3.8409,57.16168 -37.656,-25.90726 -0.1506,-6.62744 z m -79.0021,14.38456 20.3341,15.40127 -24.9659,18.26312 z m -230.6426,7.41822 -12.9536,46.54271 -1.5815,-45.37537 z m 259.5999,14.49753 0.339,0.26359 -1.1297,28.43022 -35.02,-0.97905 0.2635,-1.92046 z m 16.6063,12.57708 22.7065,17.20875 -22.3299,-0.60249 z m -44.3586,31.96987 26.3214,0.82842 -1.1296,28.43022 z m 45.1118,1.43093 29.2963,0.90373 -28.6938,27.63944 z m -56.6346,6.81571 22.0287,30.27536 -26.0579,-1.16734 z m 95.3824,0.71546 2.2218,32.94893 -35.0578,-1.58154 c 10.3859,-10.05475 27.9023,-26.68489 32.836,-31.36739 z m 549.5504,77.11932 0.1507,26.02024 -22.3676,0 z"
       id="path2996-1"
       inkscape:connector-curvature="0"
       sodipodi:nodetypes="ccccccccccccccccccccssccccccccccccccccccccscsssccccccccccccccccccccccssscccccccsssccccccccssssscccccccccccccccccccccccccccccccccccccccccccccssccccccccccccccccccccccccccccccccccsscccccsscccccccccccccccsccccccccccsscssscccccccccccccccccccccccccccccccccccccccccccccccccccccccccccccccccccccccccccccccccccccsccccscccccccccccccccsssccccccccccccccccccccccccccccccccccccccccccccccccccccccccccccccccccccccccccccccccccccccccccccccccccccccccccccccccccccccccccc" />
  </g>
</svg>
