<?xml version="1.0" encoding="utf-8"?>
<svg version="1.1" id="Layer_1" xmlns="http://www.w3.org/2000/svg" xmlns:xlink="http://www.w3.org/1999/xlink" x="0px" y="0px"
	 viewBox="0 0 1694 1694" enable-background="new 0 0 1694 1694" xml:space="preserve">
<path d="M1647,567.0001c-216.9814,89.8765-445.3224,141.6661-675.399,155.3992C985.3342,492.3228,1037.1237,263.9814,1127.0002,47
	C940.3332,47,753.6668,47,567,47c89.8765,216.9814,141.6662,445.3228,155.3992,675.3992
	C492.3227,708.6661,263.9813,656.8766,47,567.0001c0,186.6669,0,373.3333,0,560.0001
	c216.9814-89.8765,445.3228-141.666,675.3993-155.3991c-13.733,230.0765-65.5229,458.4177-155.3994,675.399
	c186.667,0,373.3334,0,560.0002,0c-89.8763-216.9813-141.6658-445.3225-155.399-675.399
	c230.0766,13.7332,458.4175,65.5226,675.399,155.3991C1647,940.3333,1647,753.6669,1647,567.0001z"/>
</svg>
